<svg xmlns="http://www.w3.org/2000/svg" xmlns:xlink="http://www.w3.org/1999/xlink" id="Layer_2" data-name="Layer 2" viewBox="0 0 787.59 364.91"><defs><style>      .cls-1 {        fill: url(#linear-gradient);      }      .cls-1, .cls-2, .cls-3 {        stroke-width: 0px;      }      .cls-2 {        fill: #fff;      }      .cls-3 {        fill: #cf0;      }    </style><linearGradient id="linear-gradient" x1="231.43" y1="218.46" x2="525.23" y2="48.83" gradientUnits="userSpaceOnUse"><stop offset="0" stop-color="#000" stop-opacity="0"></stop><stop offset=".05" stop-color="#1d1d1d" stop-opacity=".11"></stop><stop offset=".15" stop-color="#515151" stop-opacity=".32"></stop><stop offset=".26" stop-color="#7f7f7f" stop-opacity=".5"></stop><stop offset=".37" stop-color="#a7a7a7" stop-opacity=".66"></stop><stop offset=".48" stop-color="#c6c6c6" stop-opacity=".78"></stop><stop offset=".6" stop-color="#dfdfdf" stop-opacity=".88"></stop><stop offset=".72" stop-color="#f1f1f1" stop-opacity=".95"></stop><stop offset=".85" stop-color="#fbfbfb" stop-opacity=".99"></stop><stop offset="1" stop-color="#fff"></stop></linearGradient></defs><g id="light"><g><g id="slogan"><circle class="cls-3" cx="783.59" cy="359.96" r="4"></circle><path id="slogan-2" data-name="slogan" class="cls-2" d="M28.32,347.74c0,1.47-.15,2.91-.45,4.31-.3,1.4-.75,2.72-1.36,3.96s-1.37,2.37-2.29,3.4c-.92,1.03-2.02,1.91-3.27,2.66-1.26.74-2.69,1.32-4.29,1.74s-3.38.62-5.33.62H0l5.96-28.01h9.84c2.06,0,3.86.28,5.42.84,1.56.56,2.86,1.34,3.92,2.33s1.85,2.19,2.38,3.57c.53,1.39.8,2.91.8,4.58ZM21.64,348.23c0-1.04-.15-1.98-.44-2.8s-.74-1.53-1.35-2.1-1.37-1.01-2.29-1.32c-.92-.31-2.02-.46-3.28-.46h-3.07l-3.77,17.75h3.85c1.59,0,3.02-.26,4.3-.79,1.28-.53,2.36-1.28,3.26-2.25s1.59-2.14,2.07-3.5c.48-1.36.72-2.87.72-4.54ZM59.11,341.55h-9.79l-1.33,6.31h9.12l-1.11,5.16h-9.08l-1.37,6.29h10.45l-1.09,5.12h-16.8l5.96-28.01h16.13l-1.09,5.14ZM91.84,341.55h-7.89l-4.84,22.87h-6.35l4.82-22.87h-7.99l1.11-5.14h22.25l-1.11,5.14ZM113.67,364.42l-.8-6.23h-10.04l-3.28,6.23h-7.11l16.15-28.01h7.52l4,28.01h-6.45ZM111.38,343.89c-.01-.21-.02-.44-.03-.69,0-.25,0-.5,0-.73,0-.23.02-.45.03-.63.01-.19.03-.33.04-.42h-.12c-.03.12-.07.27-.14.45-.07.18-.14.38-.22.6-.08.21-.18.44-.29.67-.11.23-.22.46-.34.68l-5.12,9.53h7.21l-1.02-9.45ZM148.23,364.42h-16.72l5.96-28.01h6.37l-4.84,22.81h10.33l-1.09,5.2ZM176.17,353.23c-.38,1.8-.9,3.42-1.56,4.85s-1.5,2.67-2.5,3.68c-1,1.02-2.18,1.79-3.54,2.33-1.36.54-2.93.81-4.72.81-.31,0-.67-.03-1.07-.08-.4-.05-.8-.12-1.2-.2-.4-.08-.77-.17-1.12-.27s-.63-.2-.84-.29l1.15-5.84c.2.16.43.31.7.46s.56.28.87.39c.31.11.62.2.93.27s.61.11.9.11c1.47,0,2.67-.52,3.6-1.55.93-1.04,1.62-2.65,2.08-4.85l3.57-16.64h6.35l-3.59,16.82ZM208.96,341.55h-9.79l-1.33,6.31h9.12l-1.11,5.16h-9.08l-1.37,6.29h10.45l-1.09,5.12h-16.8l5.96-28.01h16.13l-1.09,5.14ZM241.68,343.54c0,1.18-.21,2.26-.64,3.21s-1.02,1.79-1.76,2.49-1.61,1.28-2.61,1.72-2.06.74-3.19.9v.08c.81.26,1.5.75,2.07,1.48.57.73,1,1.7,1.29,2.91l1.95,8.09h-6.76l-1.52-7.21c-.23-1.16-.64-2.03-1.23-2.63s-1.39-.89-2.4-.89h-1.07l-2.29,10.72h-6.37l5.96-28.01h9.57c1.63,0,3.01.19,4.16.58,1.15.38,2.08.91,2.79,1.56.72.66,1.24,1.42,1.56,2.28.33.86.49,1.76.49,2.71ZM234.96,344.58c0-1.08-.32-1.92-.96-2.53-.64-.61-1.6-.91-2.89-.91h-2.64l-1.68,7.79h2.56c.96,0,1.8-.12,2.5-.36s1.28-.56,1.74-.96c.46-.4.8-.86,1.03-1.39.23-.53.34-1.08.34-1.65ZM289.64,342.9c-.4-.25-.85-.49-1.34-.73s-1.01-.45-1.56-.63c-.55-.18-1.14-.33-1.75-.45-.61-.12-1.25-.18-1.91-.18-.74,0-1.37.1-1.88.3s-.91.45-1.21.75c-.3.3-.51.62-.64.97-.13.34-.2.67-.2.97,0,.43.07.82.21,1.18s.35.7.64,1.04.68.67,1.15,1.02c.47.34,1.05.73,1.73,1.14.88.55,1.67,1.1,2.35,1.65s1.27,1.15,1.75,1.78c.48.63.85,1.32,1.09,2.06.25.74.37,1.58.37,2.5,0,.53-.06,1.12-.19,1.76-.12.64-.34,1.28-.63,1.92-.3.64-.71,1.27-1.24,1.87s-1.19,1.13-1.98,1.58c-.79.46-1.75.82-2.86,1.1s-2.41.42-3.9.42c-.83,0-1.64-.06-2.43-.17-.79-.11-1.54-.26-2.25-.45-.71-.19-1.37-.4-1.98-.63-.61-.23-1.15-.48-1.62-.72l1.07-5.55c.48.35,1.01.68,1.57,1s1.16.59,1.78.82c.62.23,1.26.42,1.92.55s1.33.2,2.01.2c.74,0,1.37-.08,1.89-.24.52-.16.94-.39,1.27-.67.33-.29.56-.62.7-1,.14-.38.21-.78.21-1.21s-.07-.82-.21-1.16-.36-.68-.67-1-.73-.65-1.24-1c-.51-.34-1.14-.73-1.88-1.16-.79-.44-1.52-.92-2.17-1.44-.65-.51-1.21-1.09-1.68-1.72s-.83-1.33-1.09-2.11c-.26-.77-.39-1.64-.39-2.59,0-1.08.2-2.14.61-3.18.4-1.04,1.04-1.97,1.89-2.79s1.96-1.48,3.29-1.98c1.33-.5,2.93-.75,4.78-.75.77,0,1.51.04,2.23.13.72.08,1.4.2,2.05.34.65.14,1.26.31,1.84.49.57.18,1.09.37,1.56.57l-1.07,5.43ZM327.79,347.97c0,1.12-.1,2.25-.29,3.38s-.49,2.23-.87,3.29c-.38,1.06-.87,2.08-1.45,3.06-.58.98-1.25,1.87-2.02,2.68-.65.69-1.36,1.32-2.13,1.88-.77.56-1.61,1.04-2.51,1.43-.91.39-1.88.69-2.94.91s-2.19.32-3.42.32c-1.85,0-3.5-.31-4.95-.92-1.45-.61-2.68-1.46-3.68-2.53-1-1.07-1.77-2.35-2.29-3.82s-.79-3.07-.79-4.79c0-1.21.1-2.41.31-3.58.21-1.18.52-2.31.95-3.4.42-1.09.95-2.12,1.58-3.11.63-.98,1.36-1.88,2.2-2.71.65-.62,1.35-1.19,2.11-1.69.75-.5,1.57-.93,2.44-1.3.87-.36,1.81-.64,2.81-.84,1-.2,2.08-.29,3.22-.29,1.73,0,3.32.27,4.76.82,1.44.55,2.67,1.34,3.7,2.37,1.03,1.04,1.83,2.3,2.4,3.79.57,1.49.86,3.17.86,5.05ZM321.11,348.19c0-1.05-.13-2-.4-2.83-.27-.83-.65-1.54-1.14-2.12-.5-.58-1.1-1.02-1.81-1.33-.71-.31-1.51-.46-2.41-.46-1.04,0-2.03.24-2.97.72s-1.77,1.15-2.5,2.01c-.44.52-.83,1.12-1.17,1.8-.34.68-.62,1.39-.86,2.15s-.41,1.53-.54,2.31c-.12.79-.19,1.57-.19,2.33,0,1.05.13,2,.4,2.83.27.83.65,1.53,1.14,2.1.49.57,1.09,1,1.79,1.3.7.3,1.47.45,2.33.45,1.07,0,2.09-.23,3.06-.7.97-.47,1.82-1.17,2.55-2.09.46-.55.85-1.16,1.19-1.85.34-.68.62-1.4.84-2.14.22-.74.39-1.5.51-2.27s.18-1.51.18-2.23ZM366.03,364.42h-5.66l3.55-16.76c.39-1.78.9-3.78,1.52-6h-.16c-.18.42-.37.83-.58,1.25s-.4.81-.6,1.18-.38.7-.55,1-.32.53-.45.71l-7.5,10.21h-4.41l-2.91-10.02c-.07-.2-.13-.5-.19-.93s-.09-.86-.09-1.32v-2.09h-.18c-.18,1.22-.36,2.35-.54,3.38-.18,1.03-.33,1.89-.48,2.6l-3.57,16.78h-5.68l5.96-28.01h7.5l2.87,9.73c.09.31.18.65.25,1.01s.14.72.2,1.07.09.7.12,1.04.04.63.04.89h.1c.14-.29.3-.61.46-.97s.33-.72.51-1.09.36-.73.56-1.07.39-.65.59-.91l7.15-9.69h8.12l-5.96,28.01ZM425.17,343.31c-.4-.27-.87-.54-1.41-.79s-1.12-.48-1.75-.66-1.3-.34-2.01-.46c-.71-.12-1.44-.18-2.2-.18-1.63,0-3.1.26-4.4.79s-2.42,1.27-3.34,2.23-1.62,2.11-2.11,3.46-.73,2.84-.73,4.48c0,1.18.16,2.25.49,3.18s.79,1.73,1.4,2.36,1.34,1.13,2.2,1.46,1.82.51,2.87.51c.7,0,1.29-.04,1.75-.13s.88-.19,1.26-.3l1.19-5.68h-5.68l1.07-5.04h11.97l-3.01,14.2c-.56.27-1.17.54-1.84.79s-1.39.49-2.17.69-1.62.37-2.52.5-1.87.19-2.91.19c-2,0-3.8-.3-5.38-.9s-2.91-1.45-3.99-2.54-1.91-2.41-2.48-3.94-.86-3.22-.86-5.07c0-1.46.16-2.88.49-4.27s.81-2.69,1.46-3.92c.64-1.22,1.45-2.35,2.42-3.37s2.1-1.9,3.4-2.64,2.76-1.31,4.38-1.72,3.42-.62,5.37-.62c.89,0,1.73.05,2.53.15.8.1,1.55.22,2.26.38s1.35.33,1.94.52,1.12.37,1.59.56l-1.25,5.76ZM464.29,347.97c0,1.12-.1,2.25-.29,3.38s-.49,2.23-.87,3.29-.87,2.08-1.45,3.06-1.25,1.87-2.02,2.68c-.65.69-1.36,1.32-2.13,1.88s-1.6,1.04-2.51,1.43-1.88.69-2.94.91-2.19.32-3.42.32c-1.85,0-3.5-.31-4.95-.92s-2.68-1.46-3.68-2.53-1.77-2.35-2.29-3.82-.79-3.07-.79-4.79c0-1.21.1-2.41.31-3.58s.52-2.31.95-3.4.95-2.12,1.58-3.11,1.36-1.88,2.2-2.71c.65-.62,1.35-1.19,2.11-1.69s1.57-.93,2.44-1.3,1.81-.64,2.81-.84,2.08-.29,3.22-.29c1.73,0,3.32.27,4.76.82s2.67,1.34,3.7,2.37,1.83,2.3,2.4,3.79.86,3.17.86,5.05ZM457.61,348.19c0-1.05-.13-2-.4-2.83s-.65-1.54-1.14-2.12-1.1-1.02-1.81-1.33c-.71-.31-1.51-.46-2.41-.46-1.04,0-2.03.24-2.97.72s-1.77,1.15-2.5,2.01c-.44.52-.83,1.12-1.17,1.8s-.62,1.39-.86,2.15-.41,1.53-.54,2.31-.19,1.57-.19,2.33c0,1.05.13,2,.4,2.83s.65,1.53,1.14,2.1,1.09,1,1.79,1.3,1.47.45,2.33.45c1.07,0,2.09-.23,3.06-.7s1.82-1.17,2.55-2.09c.46-.55.85-1.16,1.19-1.85s.62-1.4.84-2.14.39-1.5.51-2.27.18-1.51.18-2.23ZM451.73,331.1c0,.38-.07.73-.21,1.06s-.34.62-.61.86-.57.43-.94.58-.77.21-1.23.21-.85-.07-1.23-.21-.7-.34-.97-.59-.48-.54-.62-.87-.22-.68-.22-1.04c0-.39.08-.75.23-1.07s.37-.6.64-.83.6-.41.97-.54.77-.2,1.2-.2.85.07,1.21.2.68.31.95.55.47.51.62.84.21.68.21,1.05ZM460.65,331.1c0,.38-.07.73-.21,1.06s-.33.62-.6.86-.58.43-.95.58-.78.21-1.24.21-.87-.07-1.24-.21-.69-.34-.95-.59-.46-.54-.61-.87-.21-.68-.21-1.04c0-.39.08-.75.22-1.07.15-.33.36-.6.63-.83s.59-.41.96-.54.76-.2,1.19-.2.85.07,1.21.2.68.31.95.55.47.51.62.84.21.68.21,1.05ZM498.61,343.54c0,1.18-.21,2.26-.64,3.21s-1.02,1.79-1.76,2.49-1.61,1.28-2.61,1.72-2.06.74-3.19.9v.08c.81.26,1.5.75,2.07,1.48s1,1.7,1.29,2.91l1.95,8.09h-6.76l-1.52-7.21c-.23-1.16-.64-2.03-1.23-2.63s-1.39-.89-2.4-.89h-1.07l-2.29,10.72h-6.37l5.96-28.01h9.57c1.63,0,3.01.19,4.16.58s2.08.91,2.79,1.56,1.24,1.42,1.56,2.28.49,1.76.49,2.71ZM491.89,344.58c0-1.08-.32-1.92-.96-2.53s-1.6-.91-2.89-.91h-2.64l-1.68,7.79h2.56c.96,0,1.8-.12,2.5-.36s1.28-.56,1.74-.96.8-.86,1.03-1.39.34-1.08.34-1.65ZM546.57,342.9c-.4-.25-.85-.49-1.34-.73s-1.01-.45-1.56-.63-1.14-.33-1.75-.45-1.25-.18-1.91-.18c-.74,0-1.37.1-1.88.3s-.91.45-1.21.75-.51.62-.64.97-.2.67-.2.97c0,.43.07.82.21,1.18s.35.7.64,1.04.68.67,1.15,1.02,1.05.73,1.73,1.14c.89.55,1.67,1.1,2.35,1.65s1.27,1.15,1.75,1.78.85,1.32,1.09,2.06.37,1.58.37,2.5c0,.53-.06,1.12-.19,1.76s-.33,1.28-.63,1.92-.71,1.27-1.24,1.87-1.19,1.13-1.98,1.58-1.75.82-2.86,1.1-2.41.42-3.9.42c-.83,0-1.64-.06-2.43-.17s-1.54-.26-2.25-.45-1.37-.4-1.98-.63-1.15-.48-1.62-.72l1.07-5.55c.48.35,1.01.68,1.57,1,.57.31,1.16.59,1.78.82s1.26.42,1.92.55,1.33.2,2.01.2c.74,0,1.37-.08,1.89-.24s.94-.39,1.27-.67.56-.62.7-1,.21-.78.21-1.21-.07-.82-.21-1.16-.36-.68-.67-1-.73-.65-1.24-1-1.14-.73-1.88-1.16c-.79-.44-1.52-.92-2.17-1.44s-1.21-1.09-1.68-1.72-.83-1.33-1.09-2.11-.39-1.64-.39-2.59c0-1.08.2-2.14.61-3.18s1.04-1.97,1.89-2.79,1.96-1.48,3.29-1.98,2.93-.75,4.78-.75c.77,0,1.51.04,2.23.13s1.4.2,2.05.34,1.26.31,1.84.49,1.09.37,1.56.57l-1.07,5.43ZM583.22,338.08c-.66.72-1.42,1.52-2.26,2.4s-1.73,1.8-2.66,2.75-1.82,1.88-2.66,2.75-1.59,1.68-2.26,2.4-1.15,1.28-1.46,1.67c.17.43.45,1.03.84,1.79s.84,1.6,1.34,2.52,1.04,1.88,1.6,2.87,1.1,1.95,1.6,2.87.95,1.76,1.34,2.52.67,1.36.84,1.79h-7.68c-.12-.34-.33-.83-.62-1.46s-.65-1.35-1.04-2.13-.82-1.6-1.26-2.45-.86-1.67-1.26-2.45-.75-1.49-1.05-2.12-.52-1.12-.63-1.46c-.1-.22-.2-.47-.29-.75s-.16-.5-.2-.65h-.08l-2.83,13.48h-6.37l5.96-28.01h6.37l-2.75,13.01h.08c.14-.2.31-.41.5-.64s.34-.43.46-.59c.26-.33.66-.8,1.2-1.42s1.15-1.31,1.82-2.07,1.38-1.56,2.12-2.39,1.45-1.63,2.12-2.39,1.27-1.45,1.8-2.07.91-1.1,1.14-1.44h7.71c-.31.39-.8.95-1.46,1.67ZM596.57,364.42h-6.37l5.92-28.01h6.37l-5.92,28.01ZM627.6,364.42h-16.72l5.96-28.01h6.37l-4.84,22.81h10.33l-1.09,5.2ZM656.09,364.42h-16.72l5.96-28.01h6.37l-4.84,22.81h10.33l-1.09,5.2ZM693.5,364.42h-5.76l-8.77-17.79c-.08-.16-.16-.34-.25-.55s-.18-.42-.27-.63-.18-.42-.25-.62-.14-.37-.18-.53h-.12c-.07.48-.14,1.02-.21,1.62s-.19,1.19-.33,1.78l-3.57,16.72h-5.92l5.92-28.01h6.25l8.4,17.13c.07.14.15.32.24.52s.2.41.29.62.19.43.27.63.15.39.19.55h.08c.01-.2.03-.41.06-.65s.06-.49.1-.73.08-.49.13-.72.09-.44.13-.62l3.55-16.72h5.96l-5.92,28.01ZM726.09,364.42l-.8-6.23h-10.04l-3.28,6.23h-7.11l16.15-28.01h7.52l4,28.01h-6.45ZM723.8,343.89c-.01-.21-.02-.44-.03-.69s0-.5,0-.73.02-.45.03-.63.03-.33.04-.42h-.12c-.03.12-.07.27-.14.45s-.14.38-.22.6-.18.44-.29.67-.22.46-.34.68l-5.12,9.53h7.21l-1.02-9.45ZM772.25,347.74c0,1.47-.15,2.91-.45,4.31s-.75,2.72-1.36,3.96-1.37,2.37-2.29,3.4-2.01,1.91-3.27,2.66c-1.26.74-2.69,1.32-4.29,1.74s-3.38.62-5.33.62h-11.33l5.96-28.01h9.84c2.06,0,3.86.28,5.42.84s2.86,1.34,3.92,2.33,1.85,2.19,2.38,3.57.8,2.91.8,4.58ZM765.57,348.23c0-1.04-.15-1.98-.44-2.8s-.74-1.53-1.35-2.1-1.37-1.01-2.29-1.32-2.02-.46-3.28-.46h-3.07l-3.77,17.75h3.85c1.59,0,3.02-.26,4.3-.79s2.36-1.28,3.26-2.25,1.59-2.14,2.07-3.5.72-2.87.72-4.54Z"></path></g><path id="title" class="cls-2" d="M627.26,273.75c-.73-1.52-1.31-2.72-2.06-4.27h19.84c3.83,10.49,7.74,21.19,11.64,31.89.36,0,.72,0,1.08-.01,1.9-10.55,3.81-21.09,5.75-31.87h14.73c-2.84,15.92-5.62,31.54-8.44,47.34h-16.79c-3.92-10.63-7.85-21.32-11.78-32.01-.37,0-.74,0-1.1,0-1.91,10.53-3.81,21.06-5.77,31.89h-14.67c2.57-14.6,5.1-28.91,7.57-42.96ZM687.72,279.76c-1.56,10.08-3.47,20.11-5.27,30.31,2.48,2.34,4.82,4.54,7.22,6.81h41.71c1.65-9.53,3.27-18.87,4.92-28.38h-28.77c-.42,2.58-.78,4.86-1.24,7.68h13.91c-.8,4.53-1.49,8.49-2.17,12.34h-20.52c1.85-10.57,3.63-20.69,5.41-30.84h20.35c-.14,2.05-.26,3.84-.39,5.85h14.38c.46-2.64.87-4.94,1.25-7.09-2.38-2.58-4.56-4.94-6.43-6.96h-44.28c0,3.64.42,7.03-.08,10.27ZM302.06,279.08c-.84,6.05-2.12,12.03-3.17,18.05-1.13,6.46-2.21,12.92-3.36,19.71h14.59c1.3-6.9,2.57-13.68,3.81-20.29h20.5c-1.19,6.93-2.32,13.48-3.49,20.26h14.66c2.46-13.75,4.88-27.32,7.13-39.92-2.66-3.07-4.69-5.42-6.35-7.34h-44.23c0,3.4.34,6.51-.07,9.53ZM317.21,277.65h20.58c-.63,3.5-1.2,6.72-1.83,10.21h-20.54c.63-3.59,1.2-6.82,1.79-10.21ZM88.03,296.59c-1.18,6.88-2.29,13.35-3.47,20.16h14.64c2.45-13.7,4.87-27.16,7.25-40.47-2.42-2.53-4.56-4.77-6.39-6.68h-45.56c.85,1.62,1.47,2.8,2.17,4.12-2.51,14.25-5.04,28.53-7.59,42.98h14.69c1.28-6.93,2.5-13.51,3.72-20.12h20.54ZM89.56,287.92h-20.57c.6-3.51,1.15-6.72,1.75-10.2h20.56c-.6,3.53-1.16,6.76-1.74,10.2ZM572.25,296.16h10.03c1.22-6.92,2.38-13.49,3.57-20.21-3.56-2.3-4.89-6.87-10-6.79-11.59.18-23.19.06-34.78.08-1.15,0-2.29.17-3.75.28.87,1.75,1.47,2.95,2.11,4.25-2.52,14.25-5.04,28.52-7.61,43.07h14.67c1.28-6.91,2.54-13.68,3.8-20.43h7.1c3.33,6.82,6.64,13.61,9.96,20.41h14.68c-3.36-7.11-6.41-13.55-9.77-20.66ZM551.71,287.93c.64-3.56,1.22-6.77,1.84-10.2h17.2c-.67,3.6-1.27,6.83-1.89,10.2h-17.16ZM437.19,296.53h20.51c-1.16,6.92-2.26,13.48-3.4,20.26h14.66c1.66-9.49,3.27-18.75,4.92-28.25-2.16-.28-3.82-.49-5.8-.74,1.03-6.24,2.01-12.18,3.03-18.37h-14.56c-1.18,6.26-2.32,12.34-3.46,18.4h-14.35c1.06-6.32,2.06-12.24,3.08-18.33h-17.6c.81,1.58,1.42,2.76,2.15,4.19-2.5,14.13-5.03,28.45-7.61,43.11h14.7c1.28-6.99,2.51-13.67,3.73-20.27ZM395.56,301.35c-.63,2.63-1.2,5-1.73,7.17h-20.35c1.84-10.57,3.6-20.69,5.34-30.71h20.44c-.18,2.2-.33,4.02-.5,6.1h14.37c.47-2.65.93-5.18,1.34-7.52-2.47-2.6-4.68-4.93-6.54-6.89h-44.09c0,3.41.4,6.55-.07,9.54-1.63,10.33-3.56,20.61-5.38,30.93,2.46,2.44,4.74,4.71,6.97,6.92h41.95c.9-5.16,1.76-10.14,2.7-15.55h-14.45ZM129.16,296.17h31.94c1.22-6.94,2.38-13.51,3.5-19.88-2.47-2.56-4.62-4.78-6.47-6.7h-42c.83,1.64,1.44,2.84,2.11,4.17-2.51,14.24-5.03,28.52-7.59,43.05h14.68c1.27-6.87,2.51-13.57,3.82-20.63ZM149.59,277.66c-.64,3.54-1.22,6.76-1.84,10.22h-17.18c.59-3.42,1.15-6.63,1.77-10.22h17.26ZM496.73,308.86c.76-4.5,1.42-8.36,2.15-12.66h21.74c.48-2.8.88-5.14,1.38-8.09h-21.58c.67-3.82,1.23-7.07,1.87-10.72h25.15c.5-2.79.92-5.17,1.41-7.87h-42.89c.76,1.56,1.34,2.76,2.06,4.24-2.46,14.07-4.96,28.39-7.52,43.05h39.91c.48-2.49.92-4.77,1.53-7.95h-25.22ZM198.51,281.82c-2.31-4.56-4.26-8.42-6.2-12.25h-17.31c7.74,6.44,9.43,15.73,14.16,23.37-6.69,7.97-13.09,15.61-20.06,23.92h14.58c3.5-4.01,6.98-8,10.82-12.41,2.36,4.48,4.43,8.4,6.42,12.18h14.58c-3.97-8.12-7.69-15.71-11.49-23.49,6.54-7.75,13-15.39,19.96-23.64h-14.75c-3.46,3.98-6.91,7.95-10.71,12.32ZM267.2,269.47h-16.16c-.19,3.97-.04,7.72-.62,11.34-1.68,10.46-3.66,20.88-5.5,31.32-.25,1.43-.37,2.88-.59,4.66h39.8c.46-2.6.88-4.98,1.41-7.94h-25.18c2.33-13.39,4.56-26.21,6.84-39.37ZM616.67,269.47h-17.65c.8,1.64,1.43,2.94,2.08,4.28-2.49,14.22-4.98,28.41-7.53,43.01h14.69c2.82-15.84,5.6-31.45,8.42-47.28Z"></path><g id="motorcycle"><path class="cls-3" d="M386.09,80.38c3.94,5.44,7.77,10.74,12,16.58-7.83,2.12-15.07,4.09-22.6,6.12,10.2,10.1,22.95,11.6,35.97,12.36,7.13,9.82,14.14,19.48,21.15,29.15-.16.27-.31.53-.47.8-42.42-15.55-84.84-31.1-127.25-46.65l.06-1.03c26.98-5.76,53.96-11.52,81.14-17.33Z"></path><path class="cls-3" d="M353.31,19.55c11.81,3.18,23.52,6.82,35.47,9.37,10.38,2.21,19.28,6.22,25.9,14.73,1.52,1.95,3.48,3.57,5.26,5.31,4.35,4.25,8.71,8.49,13.06,12.73,5.37-1.81,10.4-3.51,15.67-5.29-.57-1.03-.81-1.59-1.16-2.07-6.33-8.81-12.65-17.63-19.03-26.4-6.68-9.18-14.73-16.61-25.99-19.78-18.89-5.32-35.52,1.35-51.9,10.43.91.33,1.8.72,2.72.97Z"></path><path class="cls-1" d="M457.25,125.41c6.49-9.83,14.91-16.54,24.44-22.37-1.06-2.35-2.02-4.47-3.24-7.15-6.85,3.17-13.51,6.16-20.06,9.37-.94.46-1.47,1.94-1.99,3.05-4.77,10.16-9.48,20.34-14.23,30.51-.63,1.34-1.33,2.65-2.29,4.55-1.1-1.34-1.96-2.29-2.71-3.32-2.72-3.73-5.14-7.71-8.16-11.18-4.55-5.23-6.45-11.07-6.73-18-.52-12.58-1.79-25.12-2.73-37.68-.05-.6.07-1.22.14-2.21,10.7-3.56,21.44-7.14,32.32-10.76,16.32,8.15,32.58,16.27,49.55,24.74-6.18,2.98-11.62,5.61-17.22,8.31,5.93,12.94,11.65,25.52,17.44,38.07,5.75,12.45,11.56,24.88,17.36,37.31.52,1.12.93,2.54,1.84,3.18.94.66,2.61,1.01,3.62.62.8-.31,1.43-1.93,1.5-3,.06-1.01-.66-2.1-1.12-3.12-4.85-10.54-9.72-21.06-14.57-31.59-.45-.99-.79-2.03-1.18-3.06,14.16-4.14,31.16,3.66,38.8,17.6,8.32,15.19,4.98,33.37-8.23,44.83-11.93,10.35-30.71,11.34-43.89,1.68,1.59-.79,3.04-1.51,4.04-2-.57-10.77-1.08-20.46-1.6-30.15-.04-.75-.11-1.49-.16-2.24-.51-7.21.96-15.12-8.08-19.42,2.65-2.31,4.58-4,6.89-6.02-1.37-2.95-2.8-6.04-4.54-9.78-3.78,2.92-7.18,5.53-10.84,8.36-7.87-2.96-15.89-5.97-24.35-9.14ZM559.7,185.31c-10.29,23-36.32,34.13-60.38,25-11.3-4.29-19.79-12.05-24.97-23.01-8.1-17.13-6.03-33.55,4.63-49.31-6.39-2.42-12.3-4.66-18.12-6.86-12.46,16.83-16.15,47.34.08,72.13,15.94,24.34,46.24,35.33,75.26,26.85,26.69-7.8,46.42-33.94,46.81-62.13.43-30.92-19.49-53.02-36.76-60.19-5.71,4.16-11.53,8.4-17.87,13.02,31.98,9.86,41.08,42.68,31.32,64.5ZM206.41,74.44c43.12,24.27,86.24,48.54,129.25,72.75,3.73,10.97,7.37,21.68,11.04,32.48h50.35c8.41-9.56,16.77-19.07,25.44-28.93-72.32-25.86-144.02-51.51-215.73-77.15-.12.28-.24.56-.37.84ZM318.32,48.95c9.2,4.47,18.36,9.03,27.65,13.3,2.64,1.22,5.64,1.94,8.55,2.26,10.03,1.09,20.08,1.9,30.09,2.82,10.87,15.04,21.58,29.86,32.29,44.67.29-.16.57-.32.86-.48-1.04-13.77-2.08-27.55-3.16-41.79-10.95-9.41-21.8-19.27-23.01-34.93-13.29-3.57-25.68-6.91-37.56-10.1-13.27,7.54-26.03,14.79-39.24,22.3,1.43.79,2.46,1.42,3.54,1.95ZM377.94,74.88c-.8-.19-1.58-.48-2.39-.56-6.09-.57-12.2-.96-18.27-1.68-4.55-.54-9.37-.67-13.52-2.36-34.11-13.86-68.09-28.05-102.11-42.13-1.8-.74-3.65-1.37-5.47-2.05-.16.28-.32.55-.48.83,24.11,19.84,48.22,39.68,72.43,59.6,23.35-3.65,46.58-7.29,69.81-10.92v-.73ZM401.02,184.51c-12.47,0-24.95.19-37.42-.08-6.26-.14-12,.8-17.59,3.79-3.31,1.77-7.15,3.42-10.8,3.54-9.96.32-19.98.19-29.92-.53-7.36-.53-13.99.85-20.57,3.94-6.02,2.83-12.27,5.18-18.42,7.74.07.31.13.62.2.93,48.6-2.43,97.2-4.87,146.05-7.31,6.24-13.38,12.41-26.62,18.59-39.86-.27-.15-.53-.29-.8-.44-8.36,9.39-16.71,18.77-25.18,28.28-1.42,0-2.79,0-4.15,0ZM204.38,171.61c2.46.8,4.91,1.1,7.37,1.29,11.06.86,22.13,1.67,33.19,2.54,27.59,2.16,55.19,4.26,82.77,6.59,4.57.39,8.22-1.12,12.17-3.47-6.06-7.47-12-14.8-18.17-22.4-39.35,5.18-78.34,10.31-117.33,15.44ZM444.5,1.15c-3.32-2.18-5.37-1.43-9.66,3.6-1.8.37-3.76.74-5.71,1.17-4.51.99-6.38,3.59-5.25,7.27,1.07,3.49,4.03,4.64,8.14,3.19,1.24-.44,2.5-.83,3.51-1.17,5.32,11.62,10.66,22.72,15.47,34.05,2.14,5.04,5.22,8.42,10.28,10.47,4.4,1.78,8.55,4.18,12.81,6.31.22-.26.45-.52.67-.78-7.54-16.34-15.08-32.68-22.55-48.88-2.24-.89-4.18-1.66-6.36-2.53,3.12-5.96,2.57-10.14-1.34-12.71ZM504.03,120.86c3.8-.41,7.08-1.35,10.21-.99,6.47.73,11.67-1.31,16.22-5.65.27-.25.62-.42.92-.64,5.3-3.88,10.61-7.77,16.58-12.15-18.1-8.18-35.71-9.49-54.49-3.33,3.71,8,7.18,15.49,10.56,22.76ZM464.05,30.69c5.79,12.57,11.58,25.14,17.39,37.7.31.66.68,1.5,1.26,1.8,6.15,3.19,12.35,6.28,19.33,9.81-1.52-12.46-2.93-23.92-4.36-35.62-11.23-5.25-22.38-10.45-34.31-16.03.4,1.4.48,1.9.68,2.33Z"></path><path class="cls-3" d="M486.11,142.71c4.56,3.86,8.37,7.57,8.26,14.66-.17,11.16,1.05,22.34,1.68,33.7-1.79,1.56-3.54,3.08-5.22,4.53-15.6-10.59-18.21-40.61-4.73-52.89Z"></path><path class="cls-3" d="M427.21,63.52c-3,1-5.91,1.98-9.22,3.09-8.34-8.94-19.84-15.47-20.78-30.3,1.76.68,3.89.92,5.13,2.09,8.2,7.82,16.21,15.85,24.27,23.82.24.24.31.65.6,1.3Z"></path></g></g></g></svg>