<svg xmlns="http://www.w3.org/2000/svg" id="Layer_2" data-name="Layer 2" viewBox="0 0 378.63 232.96"><defs><style>      .cls-1 {        fill: #fff;        stroke-width: 0px;      }    </style></defs><g id="Layer_8" data-name="Layer 8"><g id="motorcycle"><path class="cls-1" d="M181.71,80.38c3.94,5.44,7.77,10.74,12,16.58-7.83,2.12-15.07,4.09-22.6,6.12,10.2,10.1,22.95,11.6,35.97,12.36,7.13,9.82,14.14,19.48,21.15,29.15-.16.27-.31.53-.47.8-42.42-15.55-84.84-31.1-127.25-46.65l.06-1.03c26.98-5.76,53.96-11.52,81.14-17.33Z"></path><path class="cls-1" d="M148.93,19.55c11.81,3.18,23.52,6.82,35.47,9.37,10.38,2.21,19.28,6.22,25.9,14.73,1.52,1.95,3.48,3.57,5.26,5.31,4.35,4.25,8.71,8.49,13.06,12.73,5.37-1.81,10.4-3.51,15.67-5.29-.57-1.03-.81-1.59-1.16-2.07-6.33-8.81-12.65-17.63-19.03-26.4-6.68-9.18-14.73-16.61-25.99-19.78-18.89-5.32-35.52,1.35-51.9,10.43.91.33,1.8.72,2.72.97Z"></path><path class="cls-1" d="M252.87,125.41c6.49-9.83,14.91-16.54,24.44-22.37-1.06-2.35-2.02-4.47-3.24-7.15-6.85,3.17-13.51,6.16-20.06,9.37-.94.46-1.47,1.94-1.99,3.05-4.77,10.16-9.48,20.34-14.23,30.51-.63,1.34-1.33,2.65-2.29,4.55-1.1-1.34-1.96-2.29-2.71-3.32-2.72-3.73-5.14-7.71-8.16-11.18-4.55-5.23-6.45-11.07-6.73-18-.52-12.58-1.79-25.12-2.73-37.68-.05-.6.07-1.22.14-2.21,10.7-3.56,21.44-7.14,32.32-10.76,16.32,8.15,32.58,16.27,49.55,24.74-6.18,2.98-11.62,5.61-17.22,8.31,5.93,12.94,11.65,25.52,17.44,38.07,5.75,12.45,11.56,24.88,17.36,37.31.52,1.12.93,2.54,1.84,3.18.94.66,2.61,1.01,3.62.62.8-.31,1.43-1.93,1.5-3,.06-1.01-.66-2.1-1.12-3.12-4.85-10.54-9.72-21.06-14.57-31.59-.45-.99-.79-2.03-1.18-3.06,14.16-4.14,31.16,3.66,38.8,17.6,8.32,15.19,4.98,33.37-8.23,44.83-11.93,10.35-30.71,11.34-43.89,1.68,1.59-.79,3.04-1.51,4.04-2-.57-10.77-1.08-20.46-1.6-30.15-.04-.75-.11-1.49-.16-2.24-.51-7.21.96-15.12-8.08-19.42,2.65-2.31,4.58-4,6.89-6.02-1.37-2.95-2.8-6.04-4.54-9.78-3.78,2.92-7.18,5.53-10.84,8.36-7.87-2.96-15.89-5.97-24.35-9.14ZM355.32,185.31c-10.29,23-36.32,34.13-60.38,25-11.3-4.29-19.79-12.05-24.97-23.01-8.1-17.13-6.03-33.55,4.63-49.31-6.39-2.42-12.3-4.66-18.12-6.86-12.46,16.83-16.15,47.34.08,72.13,15.94,24.34,46.24,35.33,75.26,26.85,26.69-7.8,46.42-33.94,46.81-62.13.43-30.92-19.49-53.02-36.76-60.19-5.71,4.16-11.53,8.4-17.87,13.02,31.98,9.86,41.08,42.68,31.32,64.5ZM2.02,74.44c43.12,24.27,86.24,48.54,129.25,72.75,3.73,10.97,7.37,21.68,11.04,32.48h50.35c8.41-9.56,16.77-19.07,25.44-28.93C145.8,124.88,74.09,99.24,2.39,73.59c-.12.28-.24.56-.37.84ZM113.94,48.95c9.2,4.47,18.36,9.03,27.65,13.3,2.64,1.22,5.64,1.94,8.55,2.26,10.03,1.09,20.08,1.9,30.09,2.82,10.87,15.04,21.58,29.86,32.29,44.67.29-.16.57-.32.86-.48-1.04-13.77-2.08-27.55-3.16-41.79-10.95-9.41-21.8-19.27-23.01-34.93-13.29-3.57-25.68-6.91-37.56-10.1-13.27,7.54-26.03,14.79-39.24,22.3,1.43.79,2.46,1.42,3.54,1.95ZM173.56,74.88c-.8-.19-1.58-.48-2.39-.56-6.09-.57-12.2-.96-18.27-1.68-4.55-.54-9.37-.67-13.52-2.36-34.11-13.86-68.09-28.05-102.11-42.13-1.8-.74-3.65-1.37-5.47-2.05-.16.28-.32.55-.48.83,24.11,19.84,48.22,39.68,72.43,59.6,23.35-3.65,46.58-7.29,69.81-10.92v-.73ZM196.64,184.51c-12.47,0-24.95.19-37.42-.08-6.26-.14-12,.8-17.59,3.79-3.31,1.77-7.15,3.42-10.8,3.54-9.96.32-19.98.19-29.92-.53-7.36-.53-13.99.85-20.57,3.94-6.02,2.83-12.27,5.18-18.42,7.74.07.31.13.62.2.93,48.6-2.43,97.2-4.87,146.05-7.31,6.24-13.38,12.41-26.62,18.59-39.86-.27-.15-.53-.29-.8-.44-8.36,9.39-16.71,18.77-25.18,28.28-1.42,0-2.79,0-4.15,0ZM0,171.61c2.46.8,4.91,1.1,7.37,1.29,11.06.86,22.13,1.67,33.19,2.54,27.59,2.16,55.19,4.26,82.77,6.59,4.57.39,8.22-1.12,12.17-3.47-6.06-7.47-12-14.8-18.17-22.4-39.35,5.18-78.34,10.31-117.33,15.44ZM240.11,1.15c-3.32-2.18-5.37-1.43-9.66,3.6-1.8.37-3.76.74-5.71,1.17-4.51.99-6.38,3.59-5.25,7.27,1.07,3.49,4.03,4.64,8.14,3.19,1.24-.44,2.5-.83,3.51-1.17,5.32,11.62,10.66,22.72,15.47,34.05,2.14,5.04,5.22,8.42,10.28,10.47,4.4,1.78,8.55,4.18,12.81,6.31.22-.26.45-.52.67-.78-7.54-16.34-15.08-32.68-22.55-48.88-2.24-.89-4.18-1.66-6.36-2.53,3.12-5.96,2.57-10.14-1.34-12.71ZM299.65,120.86c3.8-.41,7.08-1.35,10.21-.99,6.47.73,11.67-1.31,16.22-5.65.27-.25.62-.42.92-.64,5.3-3.88,10.61-7.77,16.58-12.15-18.1-8.18-35.71-9.49-54.49-3.33,3.71,8,7.18,15.49,10.56,22.76ZM259.67,30.69c5.79,12.57,11.58,25.14,17.39,37.7.31.66.68,1.5,1.26,1.8,6.15,3.19,12.35,6.28,19.33,9.81-1.52-12.46-2.93-23.92-4.36-35.62-11.23-5.25-22.38-10.45-34.31-16.03.4,1.4.48,1.9.68,2.33Z"></path><path class="cls-1" d="M281.73,142.71c4.56,3.86,8.37,7.57,8.26,14.66-.17,11.16,1.05,22.34,1.68,33.7-1.79,1.56-3.54,3.08-5.22,4.53-15.6-10.59-18.21-40.61-4.73-52.89Z"></path><path class="cls-1" d="M222.83,63.52c-3,1-5.91,1.98-9.22,3.09-8.34-8.94-19.84-15.47-20.78-30.3,1.76.68,3.89.92,5.13,2.09,8.2,7.82,16.21,15.85,24.27,23.82.24.24.31.65.6,1.3Z"></path></g></g></svg>